<svg width="14" height="15" viewBox="0 0 14 15" fill="none" xmlns="http://www.w3.org/2000/svg">
<path d="M10.5 6.76091C10.4291 6.6059 10.2734 6.50717 10.1019 6.50717H8.35187V0.878303C8.35187 0.639292 8.15587 0.445312 7.91437 0.445312H6.16438C5.92288 0.445312 5.72688 0.639292 5.72688 0.878303V6.50717H3.97687C3.80537 6.50717 3.64963 6.60676 3.57875 6.76091C3.507 6.91592 3.535 7.09691 3.64788 7.22507L6.71038 10.689C6.7935 10.7834 6.91337 10.8371 7.03937 10.8371C7.16537 10.8371 7.28525 10.7825 7.36838 10.689L10.4309 7.22507C10.5446 7.09777 10.5709 6.91592 10.5 6.76091Z" fill="currentColor"/>
<path d="M12.1333 9.82617V12.5973H1.86667V9.82617H0V13.521C0 14.0318 0.418133 14.4447 0.933333 14.4447H13.0667C13.5828 14.4447 14 14.0318 14 13.521V9.82617H12.1333Z" fill="currentColor"/>
</svg>
